<svg width="581" height="85" viewBox="0 0 581 85" fill="none" xmlns="http://www.w3.org/2000/svg">
    <path
        d="M74.6817 1.1061C76.8795 0.373493 79.1811 0 81.4978 0C84.1433 0 86.7662 0.487017 89.2354 1.4367L92 2.5L93.3666 2.91758C104.186 6.2236 115.767 6.07764 126.5 2.5L131.402 0.968206C133.455 0.32645 135.594 0 137.746 0C140.554 0 143.335 0.556077 145.927 1.63615L148 2.5C153.274 5.46654 157.862 9.5134 161.463 14.3757L161.931 15.0067C164.629 18.6495 166.782 22.666 168.322 26.9298L168.962 28.7028C171.303 35.185 172.5 42.0245 172.5 48.9164V57.5L171.835 63.4806C170.996 71.0332 166.598 77.7298 160 81.5L158.312 82.3441C156.779 83.1107 155.143 83.653 153.456 83.9544C146.49 85.1982 139.446 82.2205 135.485 76.3579L133.467 73.3713C130.88 69.5427 127.219 66.5643 122.944 64.8105L121.166 64.0809C114.005 61.1429 105.981 61.1076 98.7941 63.9823L96.6582 64.8367C92.2791 66.5883 88.3661 69.3319 85.2268 72.8518L80.1618 78.5307C76.0399 83.1522 69.7644 85.2217 63.7019 83.9587C62.2401 83.6542 60.8238 83.1619 59.4883 82.4941L59.2972 82.3986C58.1024 81.8012 56.9741 81.0793 55.931 80.2448L55.7894 80.1316C52.0465 77.1372 49.4601 72.9354 48.4726 68.2449L48 66C47.7093 64.5464 46.4329 63.5 44.9505 63.5H16C13.2386 63.5 11 61.2614 11 58.5C11 55.7386 13.2386 53.5 16 53.5H42.9645C44.9931 53.5 46.7131 52.0083 47 50L47.5 45.5C47.7655 43.376 46.1094 41.5 43.9689 41.5H5C2.23858 41.5 0 39.2614 0 36.5C0 33.7386 2.23858 31.5 5 31.5H47.7283C49.1003 31.5 50.3341 30.6647 50.8437 29.3908C50.9475 29.1313 51.0185 28.8598 51.055 28.5827L51.186 27.5874C51.237 27.2003 51.2044 26.8068 51.0903 26.4333C50.7396 25.2847 49.6796 24.5 48.4785 24.5H32C29.2386 24.5 27 22.2614 27 19.5C27 16.7386 29.2386 14.5 32 14.5H51.2634C54.9365 14.5 58.4591 13.0409 61.0564 10.4436L63.4017 8.09835C64.133 7.36704 64.9153 6.68856 65.7426 6.06802L67.3377 4.87171C69.4322 3.30084 71.7662 2.07792 74.25 1.25L74.6817 1.1061Z"
        fill="#56CCF2" />
    <path
        d="M74.6817 1.1061C76.8795 0.373493 79.1811 0 81.4978 0C84.1433 0 86.7662 0.487017 89.2354 1.4367L92 2.5L93.3666 2.91758C104.186 6.2236 115.767 6.07764 126.5 2.5L131.402 0.968206C133.455 0.32645 135.594 0 137.746 0C140.554 0 143.335 0.556077 145.927 1.63615L148 2.5C153.274 5.46654 157.862 9.5134 161.463 14.3757L161.931 15.0067C164.629 18.6495 166.782 22.666 168.322 26.9298L168.962 28.7028C171.303 35.185 172.5 42.0245 172.5 48.9164V57.5L171.835 63.4806C170.996 71.0332 166.598 77.7298 160 81.5L158.312 82.3441C156.779 83.1107 155.143 83.653 153.456 83.9544C146.49 85.1982 139.446 82.2205 135.485 76.3579L133.467 73.3713C130.88 69.5427 127.219 66.5643 122.944 64.8105L121.166 64.0809C114.005 61.1429 105.981 61.1076 98.7941 63.9823L96.6582 64.8367C92.2791 66.5883 88.3661 69.3319 85.2268 72.8518L80.1618 78.5307C76.0399 83.1522 69.7644 85.2217 63.7019 83.9587C62.2401 83.6542 60.8238 83.1619 59.4883 82.4941L59.2972 82.3986C58.1024 81.8012 56.9741 81.0793 55.931 80.2448L55.7894 80.1316C52.0465 77.1372 49.4601 72.9354 48.4726 68.2449L48 66C47.7093 64.5464 46.4329 63.5 44.9505 63.5H16C13.2386 63.5 11 61.2614 11 58.5C11 55.7386 13.2386 53.5 16 53.5H42.9645C44.9931 53.5 46.7131 52.0083 47 50L47.5 45.5C47.7655 43.376 46.1094 41.5 43.9689 41.5H5C2.23858 41.5 0 39.2614 0 36.5C0 33.7386 2.23858 31.5 5 31.5H47.7283C49.1003 31.5 50.3341 30.6647 50.8437 29.3908C50.9475 29.1313 51.0185 28.8598 51.055 28.5827L51.186 27.5874C51.237 27.2003 51.2044 26.8068 51.0903 26.4333C50.7396 25.2847 49.6796 24.5 48.4785 24.5H32C29.2386 24.5 27 22.2614 27 19.5C27 16.7386 29.2386 14.5 32 14.5H51.2634C54.9365 14.5 58.4591 13.0409 61.0564 10.4436L63.4017 8.09835C64.133 7.36704 64.9153 6.68856 65.7426 6.06802L67.3377 4.87171C69.4322 3.30084 71.7662 2.07792 74.25 1.25L74.6817 1.1061Z"
        fill="url(#paint0_linear)" />
    <g filter="url(#filter0_di)">
        <path
            d="M67 30.4553C67 30.1634 67.2548 29.9268 67.5691 29.9268H74.0523C74.2012 29.9268 74.3441 29.981 74.4505 30.0778L79.4468 34.6225C79.6746 34.8297 79.6746 35.1703 79.4468 35.3775L74.4505 39.9222C74.3441 40.0189 74.2012 40.0732 74.0523 40.0732H67.5691C67.2548 40.0732 67 39.8365 67 39.5447V30.4553Z"
            fill="#D9EAF5" />
    </g>
    <g filter="url(#filter1_di)">
        <path
            d="M76.1057 48C75.7914 48 75.5366 47.7634 75.5366 47.4715V41.4515C75.5366 41.3132 75.595 41.1805 75.6992 41.0817L80.5935 36.4423C80.8167 36.2308 81.1834 36.2308 81.4066 36.4423L86.3009 41.0817C86.4051 41.1805 86.4634 41.3132 86.4634 41.4515V47.4715C86.4634 47.7634 86.2086 48 85.8943 48H76.1057Z"
            fill="#D9EAF5" />
    </g>
    <g filter="url(#filter2_di)">
        <path
            d="M94.9999 39.5447C94.9999 39.8365 94.7451 40.0732 94.4308 40.0732H87.9477C87.7988 40.0732 87.6559 40.0189 87.5494 39.9222L82.5531 35.3775C82.3254 35.1703 82.3254 34.8297 82.5531 34.6225L87.5494 30.0778C87.6559 29.981 87.7988 29.9268 87.9477 29.9268H94.4308C94.7451 29.9268 94.9999 30.1634 94.9999 30.4553V39.5447Z"
            fill="#D9EAF5" />
    </g>
    <g filter="url(#filter3_di)">
        <path
            d="M85.8943 22C86.2086 22 86.4634 22.2366 86.4634 22.5285V28.5485C86.4634 28.6868 86.4051 28.8195 86.3009 28.9183L81.4066 33.5577C81.1834 33.7692 80.8167 33.7692 80.5935 33.5577L75.6992 28.9183C75.595 28.8195 75.5366 28.6868 75.5366 28.5485V22.5285C75.5366 22.2366 75.7914 22 76.1057 22H85.8943Z"
            fill="#D9EAF5" />
    </g>
    <g filter="url(#filter4_di)">
        <path
            d="M132 40C134.761 40 137 37.7614 137 35C137 32.2386 134.761 30 132 30C129.239 30 127 32.2386 127 35C127 37.7614 129.239 40 132 40Z"
            fill="#D9EAF5" />
    </g>
    <g filter="url(#filter5_di)">
        <path
            d="M150 40C152.761 40 155 37.7614 155 35C155 32.2386 152.761 30 150 30C147.239 30 145 32.2386 145 35C145 37.7614 147.239 40 150 40Z"
            fill="#D9EAF5" />
    </g>
    <g filter="url(#filter6_di)">
        <path
            d="M141 32C143.761 32 146 29.7614 146 27C146 24.2386 143.761 22 141 22C138.239 22 136 24.2386 136 27C136 29.7614 138.239 32 141 32Z"
            fill="#D9EAF5" />
    </g>
    <g filter="url(#filter7_di)">
        <path
            d="M141 48C143.761 48 146 45.7614 146 43C146 40.2386 143.761 38 141 38C138.239 38 136 40.2386 136 43C136 45.7614 138.239 48 141 48Z"
            fill="#D9EAF5" />
    </g>
    <path
        d="M221.52 59.4717C219.833 61.887 217.475 63.6986 214.444 64.9062C211.437 66.0911 207.927 66.6836 203.917 66.6836C199.861 66.6836 196.261 65.738 193.116 63.8467C189.972 61.9326 187.534 59.221 185.802 55.7119C184.093 52.2028 183.215 48.1354 183.17 43.5098V39.1689C183.17 31.6722 184.913 25.8617 188.399 21.7373C191.909 17.613 196.83 15.5508 203.165 15.5508C208.36 15.5508 212.542 16.8838 215.709 19.5498C218.876 22.193 220.813 25.9528 221.52 30.8291H214.957C213.727 24.2438 209.807 20.9512 203.199 20.9512C198.801 20.9512 195.463 22.5007 193.185 25.5996C190.929 28.6758 189.789 33.1419 189.767 38.998V43.0654C189.767 48.6481 191.043 53.0915 193.595 56.3955C196.147 59.6768 199.599 61.3174 203.951 61.3174C206.412 61.3174 208.565 61.0439 210.411 60.4971C212.257 59.9502 213.784 59.0273 214.991 57.7285V46.5518H203.473V41.2197H221.52V59.4717ZM259.932 66C259.567 65.2708 259.271 63.972 259.043 62.1035C256.104 65.1569 252.595 66.6836 248.516 66.6836C244.87 66.6836 241.874 65.6582 239.527 63.6074C237.203 61.5339 236.04 58.9134 236.04 55.7461C236.04 51.8952 237.499 48.9102 240.415 46.791C243.355 44.6491 247.479 43.5781 252.788 43.5781H258.941V40.6729C258.941 38.4626 258.28 36.708 256.958 35.4092C255.637 34.0876 253.689 33.4268 251.114 33.4268C248.858 33.4268 246.967 33.9964 245.44 35.1357C243.913 36.2751 243.15 37.6536 243.15 39.2715H236.792C236.792 37.4258 237.442 35.6484 238.741 33.9395C240.062 32.2077 241.84 30.8405 244.073 29.8379C246.329 28.8353 248.801 28.334 251.49 28.334C255.751 28.334 259.089 29.4049 261.504 31.5469C263.92 33.666 265.173 36.5941 265.264 40.3311V57.3525C265.264 60.7477 265.697 63.4479 266.563 65.4531V66H259.932ZM249.439 61.1807C251.421 61.1807 253.301 60.668 255.079 59.6426C256.856 58.6172 258.143 57.2842 258.941 55.6436V48.0557H253.985C246.237 48.0557 242.364 50.3229 242.364 54.8574C242.364 56.8398 243.024 58.3893 244.346 59.5059C245.668 60.6224 247.365 61.1807 249.439 61.1807ZM286.723 29.0176L286.894 33.1191C289.606 29.929 293.263 28.334 297.866 28.334C303.039 28.334 306.559 30.3164 308.428 34.2812C309.658 32.5039 311.253 31.0684 313.213 29.9746C315.195 28.8809 317.531 28.334 320.22 28.334C328.332 28.334 332.456 32.6292 332.593 41.2197V66H326.269V41.5957C326.269 38.9525 325.665 36.9814 324.458 35.6826C323.25 34.361 321.222 33.7002 318.374 33.7002C316.027 33.7002 314.079 34.4066 312.529 35.8193C310.98 37.2093 310.08 39.0892 309.829 41.459V66H303.471V41.7666C303.471 36.389 300.84 33.7002 295.576 33.7002C291.429 33.7002 288.592 35.4661 287.065 38.998V66H280.742V29.0176H286.723ZM363.11 66.6836C358.097 66.6836 354.018 65.043 350.873 61.7617C347.729 58.4577 346.156 54.0485 346.156 48.5342V47.3721C346.156 43.7035 346.851 40.4336 348.241 37.5625C349.654 34.6686 351.614 32.4128 354.12 30.7949C356.65 29.1543 359.384 28.334 362.323 28.334C367.131 28.334 370.868 29.9176 373.534 33.085C376.2 36.2523 377.533 40.7868 377.533 46.6885V49.3203H352.48C352.571 52.9661 353.63 55.917 355.658 58.1729C357.709 60.4059 360.307 61.5225 363.451 61.5225C365.684 61.5225 367.576 61.0667 369.125 60.1553C370.675 59.2438 372.03 58.0361 373.193 56.5322L377.055 59.54C373.956 64.3024 369.307 66.6836 363.11 66.6836ZM362.323 33.5293C359.771 33.5293 357.629 34.4635 355.898 36.332C354.166 38.1777 353.095 40.7754 352.685 44.125H371.21V43.6465C371.028 40.4336 370.162 37.9499 368.613 36.1953C367.063 34.418 364.967 33.5293 362.323 33.5293ZM418.92 44.0225H398.036V66H391.473V16.2344H422.303V21.6348H398.036V38.6562H418.92V44.0225ZM441.644 66H435.32V29.0176H441.644V66ZM434.808 19.208C434.808 18.1826 435.115 17.3167 435.73 16.6104C436.368 15.904 437.303 15.5508 438.533 15.5508C439.764 15.5508 440.698 15.904 441.336 16.6104C441.974 17.3167 442.293 18.1826 442.293 19.208C442.293 20.2334 441.974 21.0879 441.336 21.7715C440.698 22.4551 439.764 22.7969 438.533 22.7969C437.303 22.7969 436.368 22.4551 435.73 21.7715C435.115 21.0879 434.808 20.2334 434.808 19.208ZM463.376 29.0176L463.581 33.666C466.407 30.1113 470.098 28.334 474.656 28.334C482.471 28.334 486.413 32.7432 486.482 41.5615V66H480.159V41.5273C480.136 38.8613 479.521 36.8903 478.313 35.6143C477.128 34.3382 475.271 33.7002 472.742 33.7002C470.691 33.7002 468.891 34.2471 467.341 35.3408C465.792 36.4346 464.584 37.8701 463.718 39.6475V66H457.395V29.0176H463.376ZM508.488 66H502.165V29.0176H508.488V66ZM501.652 19.208C501.652 18.1826 501.96 17.3167 502.575 16.6104C503.213 15.904 504.147 15.5508 505.378 15.5508C506.608 15.5508 507.542 15.904 508.18 16.6104C508.819 17.3167 509.138 18.1826 509.138 19.208C509.138 20.2334 508.819 21.0879 508.18 21.7715C507.542 22.4551 506.608 22.7969 505.378 22.7969C504.147 22.7969 503.213 22.4551 502.575 21.7715C501.96 21.0879 501.652 20.2334 501.652 19.208ZM532.819 20.0625V29.0176H539.723V33.9053H532.819V56.8398C532.819 58.321 533.126 59.4375 533.741 60.1895C534.357 60.9186 535.405 61.2832 536.886 61.2832C537.615 61.2832 538.618 61.1465 539.894 60.873V66C538.23 66.4557 536.612 66.6836 535.04 66.6836C532.215 66.6836 530.084 65.8291 528.649 64.1201C527.213 62.4111 526.495 59.9844 526.495 56.8398V33.9053H519.762V29.0176H526.495V20.0625H532.819ZM564.839 56.7373L573.453 29.0176H580.22L565.352 71.708C563.051 77.8604 559.393 80.9365 554.38 80.9365L553.184 80.834L550.826 80.3896V75.2627L552.535 75.3994C554.677 75.3994 556.34 74.9665 557.525 74.1006C558.733 73.2347 559.724 71.651 560.499 69.3496L561.9 65.5898L548.707 29.0176H555.611L564.839 56.7373Z"
        fill="#2E9DDC" />
    <defs>
        <filter id="filter0_di" x="65" y="27.9268" width="20.6177" height="17.1464" filterUnits="userSpaceOnUse"
            color-interpolation-filters="sRGB">
            <feFlood flood-opacity="0" result="BackgroundImageFix" />
            <feColorMatrix in="SourceAlpha" type="matrix" values="0 0 0 0 0 0 0 0 0 0 0 0 0 0 0 0 0 0 127 0" />
            <feOffset />
            <feGaussianBlur stdDeviation="1" />
            <feColorMatrix type="matrix" values="0 0 0 0 0 0 0 0 0 0 0 0 0 0 0 0 0 0 0.25 0" />
            <feBlend mode="normal" in2="BackgroundImageFix" result="effect1_dropShadow" />
            <feBlend mode="normal" in="SourceGraphic" in2="effect1_dropShadow" result="shape" />
            <feColorMatrix in="SourceAlpha" type="matrix" values="0 0 0 0 0 0 0 0 0 0 0 0 0 0 0 0 0 0 127 0"
                result="hardAlpha" />
            <feOffset dx="6" dy="5" />
            <feGaussianBlur stdDeviation="3" />
            <feComposite in2="hardAlpha" operator="arithmetic" k2="-1" k3="1" />
            <feColorMatrix type="matrix" values="0 0 0 0 0.190469 0 0 0 0 0.476966 0 0 0 0 0.8625 0 0 0 1 0" />
            <feBlend mode="normal" in2="shape" result="effect2_innerShadow" />
        </filter>
        <filter id="filter1_di" x="73.5366" y="34.2837" width="18.9268" height="18.7163" filterUnits="userSpaceOnUse"
            color-interpolation-filters="sRGB">
            <feFlood flood-opacity="0" result="BackgroundImageFix" />
            <feColorMatrix in="SourceAlpha" type="matrix" values="0 0 0 0 0 0 0 0 0 0 0 0 0 0 0 0 0 0 127 0" />
            <feOffset />
            <feGaussianBlur stdDeviation="1" />
            <feColorMatrix type="matrix" values="0 0 0 0 0 0 0 0 0 0 0 0 0 0 0 0 0 0 0.25 0" />
            <feBlend mode="normal" in2="BackgroundImageFix" result="effect1_dropShadow" />
            <feBlend mode="normal" in="SourceGraphic" in2="effect1_dropShadow" result="shape" />
            <feColorMatrix in="SourceAlpha" type="matrix" values="0 0 0 0 0 0 0 0 0 0 0 0 0 0 0 0 0 0 127 0"
                result="hardAlpha" />
            <feOffset dx="6" dy="5" />
            <feGaussianBlur stdDeviation="3" />
            <feComposite in2="hardAlpha" operator="arithmetic" k2="-1" k3="1" />
            <feColorMatrix type="matrix" values="0 0 0 0 0.190469 0 0 0 0 0.476966 0 0 0 0 0.8625 0 0 0 1 0" />
            <feBlend mode="normal" in2="shape" result="effect2_innerShadow" />
        </filter>
        <filter id="filter2_di" x="80.3823" y="27.9268" width="20.6176" height="17.1464" filterUnits="userSpaceOnUse"
            color-interpolation-filters="sRGB">
            <feFlood flood-opacity="0" result="BackgroundImageFix" />
            <feColorMatrix in="SourceAlpha" type="matrix" values="0 0 0 0 0 0 0 0 0 0 0 0 0 0 0 0 0 0 127 0" />
            <feOffset />
            <feGaussianBlur stdDeviation="1" />
            <feColorMatrix type="matrix" values="0 0 0 0 0 0 0 0 0 0 0 0 0 0 0 0 0 0 0.25 0" />
            <feBlend mode="normal" in2="BackgroundImageFix" result="effect1_dropShadow" />
            <feBlend mode="normal" in="SourceGraphic" in2="effect1_dropShadow" result="shape" />
            <feColorMatrix in="SourceAlpha" type="matrix" values="0 0 0 0 0 0 0 0 0 0 0 0 0 0 0 0 0 0 127 0"
                result="hardAlpha" />
            <feOffset dx="6" dy="5" />
            <feGaussianBlur stdDeviation="3" />
            <feComposite in2="hardAlpha" operator="arithmetic" k2="-1" k3="1" />
            <feColorMatrix type="matrix" values="0 0 0 0 0.190469 0 0 0 0 0.476966 0 0 0 0 0.8625 0 0 0 1 0" />
            <feBlend mode="normal" in2="shape" result="effect2_innerShadow" />
        </filter>
        <filter id="filter3_di" x="73.5366" y="20" width="18.9268" height="18.7163" filterUnits="userSpaceOnUse"
            color-interpolation-filters="sRGB">
            <feFlood flood-opacity="0" result="BackgroundImageFix" />
            <feColorMatrix in="SourceAlpha" type="matrix" values="0 0 0 0 0 0 0 0 0 0 0 0 0 0 0 0 0 0 127 0" />
            <feOffset />
            <feGaussianBlur stdDeviation="1" />
            <feColorMatrix type="matrix" values="0 0 0 0 0 0 0 0 0 0 0 0 0 0 0 0 0 0 0.25 0" />
            <feBlend mode="normal" in2="BackgroundImageFix" result="effect1_dropShadow" />
            <feBlend mode="normal" in="SourceGraphic" in2="effect1_dropShadow" result="shape" />
            <feColorMatrix in="SourceAlpha" type="matrix" values="0 0 0 0 0 0 0 0 0 0 0 0 0 0 0 0 0 0 127 0"
                result="hardAlpha" />
            <feOffset dx="6" dy="5" />
            <feGaussianBlur stdDeviation="3" />
            <feComposite in2="hardAlpha" operator="arithmetic" k2="-1" k3="1" />
            <feColorMatrix type="matrix" values="0 0 0 0 0.190469 0 0 0 0 0.476966 0 0 0 0 0.8625 0 0 0 1 0" />
            <feBlend mode="normal" in2="shape" result="effect2_innerShadow" />
        </filter>
        <filter id="filter4_di" x="125" y="28" width="16" height="15" filterUnits="userSpaceOnUse"
            color-interpolation-filters="sRGB">
            <feFlood flood-opacity="0" result="BackgroundImageFix" />
            <feColorMatrix in="SourceAlpha" type="matrix" values="0 0 0 0 0 0 0 0 0 0 0 0 0 0 0 0 0 0 127 0" />
            <feOffset />
            <feGaussianBlur stdDeviation="1" />
            <feColorMatrix type="matrix" values="0 0 0 0 0 0 0 0 0 0 0 0 0 0 0 0 0 0 0.25 0" />
            <feBlend mode="normal" in2="BackgroundImageFix" result="effect1_dropShadow" />
            <feBlend mode="normal" in="SourceGraphic" in2="effect1_dropShadow" result="shape" />
            <feColorMatrix in="SourceAlpha" type="matrix" values="0 0 0 0 0 0 0 0 0 0 0 0 0 0 0 0 0 0 127 0"
                result="hardAlpha" />
            <feOffset dx="4" dy="3" />
            <feGaussianBlur stdDeviation="3" />
            <feComposite in2="hardAlpha" operator="arithmetic" k2="-1" k3="1" />
            <feColorMatrix type="matrix" values="0 0 0 0 0.276285 0 0 0 0 0.545737 0 0 0 0 0.908333 0 0 0 1 0" />
            <feBlend mode="normal" in2="shape" result="effect2_innerShadow" />
        </filter>
        <filter id="filter5_di" x="143" y="28" width="16" height="15" filterUnits="userSpaceOnUse"
            color-interpolation-filters="sRGB">
            <feFlood flood-opacity="0" result="BackgroundImageFix" />
            <feColorMatrix in="SourceAlpha" type="matrix" values="0 0 0 0 0 0 0 0 0 0 0 0 0 0 0 0 0 0 127 0" />
            <feOffset />
            <feGaussianBlur stdDeviation="1" />
            <feColorMatrix type="matrix" values="0 0 0 0 0 0 0 0 0 0 0 0 0 0 0 0 0 0 0.25 0" />
            <feBlend mode="normal" in2="BackgroundImageFix" result="effect1_dropShadow" />
            <feBlend mode="normal" in="SourceGraphic" in2="effect1_dropShadow" result="shape" />
            <feColorMatrix in="SourceAlpha" type="matrix" values="0 0 0 0 0 0 0 0 0 0 0 0 0 0 0 0 0 0 127 0"
                result="hardAlpha" />
            <feOffset dx="4" dy="3" />
            <feGaussianBlur stdDeviation="3" />
            <feComposite in2="hardAlpha" operator="arithmetic" k2="-1" k3="1" />
            <feColorMatrix type="matrix" values="0 0 0 0 0.276285 0 0 0 0 0.545737 0 0 0 0 0.908333 0 0 0 1 0" />
            <feBlend mode="normal" in2="shape" result="effect2_innerShadow" />
        </filter>
        <filter id="filter6_di" x="134" y="20" width="16" height="15" filterUnits="userSpaceOnUse"
            color-interpolation-filters="sRGB">
            <feFlood flood-opacity="0" result="BackgroundImageFix" />
            <feColorMatrix in="SourceAlpha" type="matrix" values="0 0 0 0 0 0 0 0 0 0 0 0 0 0 0 0 0 0 127 0" />
            <feOffset />
            <feGaussianBlur stdDeviation="1" />
            <feColorMatrix type="matrix" values="0 0 0 0 0 0 0 0 0 0 0 0 0 0 0 0 0 0 0.25 0" />
            <feBlend mode="normal" in2="BackgroundImageFix" result="effect1_dropShadow" />
            <feBlend mode="normal" in="SourceGraphic" in2="effect1_dropShadow" result="shape" />
            <feColorMatrix in="SourceAlpha" type="matrix" values="0 0 0 0 0 0 0 0 0 0 0 0 0 0 0 0 0 0 127 0"
                result="hardAlpha" />
            <feOffset dx="4" dy="3" />
            <feGaussianBlur stdDeviation="3" />
            <feComposite in2="hardAlpha" operator="arithmetic" k2="-1" k3="1" />
            <feColorMatrix type="matrix" values="0 0 0 0 0.276285 0 0 0 0 0.545737 0 0 0 0 0.908333 0 0 0 1 0" />
            <feBlend mode="normal" in2="shape" result="effect2_innerShadow" />
        </filter>
        <filter id="filter7_di" x="134" y="36" width="16" height="15" filterUnits="userSpaceOnUse"
            color-interpolation-filters="sRGB">
            <feFlood flood-opacity="0" result="BackgroundImageFix" />
            <feColorMatrix in="SourceAlpha" type="matrix" values="0 0 0 0 0 0 0 0 0 0 0 0 0 0 0 0 0 0 127 0" />
            <feOffset />
            <feGaussianBlur stdDeviation="1" />
            <feColorMatrix type="matrix" values="0 0 0 0 0 0 0 0 0 0 0 0 0 0 0 0 0 0 0.25 0" />
            <feBlend mode="normal" in2="BackgroundImageFix" result="effect1_dropShadow" />
            <feBlend mode="normal" in="SourceGraphic" in2="effect1_dropShadow" result="shape" />
            <feColorMatrix in="SourceAlpha" type="matrix" values="0 0 0 0 0 0 0 0 0 0 0 0 0 0 0 0 0 0 127 0"
                result="hardAlpha" />
            <feOffset dx="4" dy="3" />
            <feGaussianBlur stdDeviation="3" />
            <feComposite in2="hardAlpha" operator="arithmetic" k2="-1" k3="1" />
            <feColorMatrix type="matrix" values="0 0 0 0 0.276285 0 0 0 0 0.545737 0 0 0 0 0.908333 0 0 0 1 0" />
            <feBlend mode="normal" in2="shape" result="effect2_innerShadow" />
        </filter>
        <linearGradient id="paint0_linear" x1="37" y1="7.99999" x2="174.5" y2="80.5" gradientUnits="userSpaceOnUse">
            <stop offset="0.104167" stop-color="#2D9CDB" />
            <stop offset="1" stop-color="#F9F9F9" />
        </linearGradient>
    </defs>
</svg>